<svg width="1221" height="307" viewBox="0 0 1221 307" fill="none" xmlns="http://www.w3.org/2000/svg">
<path d="M0 303.256V3.74392H54.9905L70.0501 117.184L73.0164 253.837H78.949L81.6871 117.184L96.9749 3.74392H151.737V303.256H117.511V211.156L124.128 53.1634H117.967L108.384 214.9L94.2368 303.256H57.5004L43.5817 214.9L33.7701 53.1634H27.8375L34.2265 211.156V303.256H0Z" fill="white"/>
<path d="M192.836 303.256V3.74392H227.062V303.256H192.836Z" fill="white"/>
<path d="M268.241 303.256V3.74392H317.755L331.446 99.2134L343.995 253.837H349.928L343.539 132.16L340.801 3.74392H373.887V303.256H321.862L308.172 205.166L298.817 52.789H292.428L298.36 188.318L301.326 303.256H268.241Z" fill="white"/>
<path d="M414.951 303.256V3.74392H449.178V303.256H414.951Z" fill="white"/>
<path d="M490.356 303.256V3.74392H545.347L560.406 117.184L563.373 253.837H569.305L572.043 117.184L587.331 3.74392H642.094V303.256H607.867V211.156L614.484 53.1634H608.323L598.74 214.9L584.593 303.256H547.857L533.938 214.9L524.126 53.1634H518.194L524.583 211.156V303.256H490.356Z" fill="white"/>
<path d="M676.347 303.256L701.674 3.74392H755.524L780.851 303.256H745.712L741.833 240.733H715.365L711.486 303.256H676.347ZM718.559 191.313H738.639L734.532 125.046L731.794 53.1634H725.405L722.667 125.046L718.559 191.313Z" fill="white"/>
<path d="M814.973 303.256V3.74392H849.199V253.837H894.15V303.256H814.973Z" fill="white"/>
<path d="M929.596 303.256V3.74392H963.822V303.256H929.596Z" fill="white"/>
<path d="M1050.07 307C1033.33 307 1021.39 301.197 1014.24 289.591C1007.17 277.985 1003.29 258.704 1002.61 231.748C1002.53 227.754 1002.49 223.386 1002.49 218.644C1002.49 213.777 1002.57 208.972 1002.72 204.23C1002.87 199.363 1003.14 194.933 1003.52 190.939H1035.69C1035.39 200.049 1035.2 209.035 1035.12 217.895C1035.04 226.756 1035.23 234.867 1035.69 242.23C1036.07 248.346 1037.4 253.088 1039.68 256.457C1042.04 259.702 1045.5 261.324 1050.07 261.324C1054.55 261.324 1057.82 259.702 1059.88 256.457C1062.01 253.088 1063.3 248.346 1063.76 242.23C1064.06 237.987 1064.25 233.807 1064.33 229.688C1064.48 225.445 1064.48 221.265 1064.33 217.146C1064.25 212.903 1064.06 208.66 1063.76 204.417C1063.45 199.176 1062.46 194.433 1060.79 190.19C1059.12 185.947 1056.45 183.077 1052.8 181.579L1034.09 173.717C1026.18 170.348 1019.91 165.543 1015.27 159.303C1010.63 152.938 1007.24 145.076 1005.11 135.716C1003.06 126.357 1001.92 115.437 1001.69 102.957C1001.62 97.4663 1001.58 92.5992 1001.58 88.3561C1001.58 83.9882 1001.62 79.4955 1001.69 74.8781C1002.15 57.0321 1003.97 42.6181 1007.17 31.636C1010.44 20.6539 1015.53 12.6669 1022.46 7.675C1029.38 2.55833 1038.58 0 1050.07 0C1066.27 0 1078.02 5.80305 1085.32 17.4092C1092.62 28.8905 1096.61 48.0468 1097.3 74.8781C1097.45 80.2443 1097.45 86.7962 1097.3 94.5336C1097.22 102.271 1097.07 109.447 1096.84 116.061H1063.98C1064.21 107.45 1064.36 98.839 1064.44 90.2281C1064.52 81.6171 1064.44 73.0061 1064.21 64.3951C1064.14 58.4049 1062.81 53.7874 1060.22 50.5427C1057.71 47.298 1054.32 45.6756 1050.07 45.6756C1045.5 45.6756 1042.12 47.298 1039.91 50.5427C1037.71 53.7874 1036.38 58.4049 1035.92 64.3951C1035.46 70.7598 1035.23 77.1868 1035.23 83.6762C1035.23 90.1657 1035.46 96.5927 1035.92 102.957C1036.3 107.949 1037.36 112.504 1039.11 116.623C1040.86 120.741 1043.68 123.549 1047.56 125.046L1063.76 131.411C1072.27 134.78 1078.97 139.772 1083.84 146.387C1088.78 152.876 1092.32 160.988 1094.45 170.722C1096.65 180.331 1097.91 191.563 1098.21 204.417C1098.29 207.287 1098.32 210.283 1098.32 213.402C1098.32 216.522 1098.29 219.642 1098.21 222.762C1098.13 225.882 1098.06 228.877 1097.98 231.748C1097.3 258.704 1093.34 277.985 1086.12 289.591C1078.97 301.197 1066.95 307 1050.07 307Z" fill="white"/>
<path d="M1157.45 303.256V53.1634H1128.13V3.74392H1221V53.1634H1191.68V303.256H1157.45Z" fill="white"/>
</svg>
